<svg xmlns="http://www.w3.org/2000/svg" xmlns:xlink="http://www.w3.org/1999/xlink" width="500" zoomAndPan="magnify" viewBox="0 0 375 374.999991" height="500" preserveAspectRatio="xMidYMid meet" version="1.0"><defs><g/></defs><g fill="#38b6ff" fill-opacity="1"><g transform="translate(90.292967, 338.284094)"><g><path d="M 180.777344 -44.113281 L 195.289062 -11.457031 L 190.976562 -7.140625 C 183.929688 -0.0976562 174.820312 5.1875 163.636719 8.707031 C 152.972656 12.066406 141.472656 13.746094 129.144531 13.746094 C 102.289062 13.746094 81.898438 6.695312 67.96875 -7.410156 C 54.070312 -21.484375 47.121094 -42.082031 47.121094 -69.199219 L 47.121094 -224.5 L 56.007812 -224.5 L 56.007812 -215.609375 L 2.683594 -215.609375 L 2.683594 -264.398438 L 56.007812 -264.398438 L 56.007812 -255.511719 L 47.121094 -255.511719 L 47.121094 -316.972656 L 102.621094 -326.167969 L 102.621094 -255.511719 L 93.734375 -255.511719 L 93.734375 -264.398438 L 184.78125 -264.398438 L 184.78125 -215.609375 L 93.734375 -215.609375 L 93.734375 -224.5 L 102.621094 -224.5 L 102.621094 -72.902344 C 102.621094 -60.460938 105.078125 -51.410156 109.992188 -45.75 C 114.585938 -40.460938 121.894531 -37.816406 131.921875 -37.816406 C 143.792969 -37.816406 153.945312 -41.0625 162.375 -47.546875 L 164.773438 -49.390625 L 178.429688 -49.390625 Z M 164.535156 -36.894531 L 172.65625 -40.503906 L 172.65625 -31.613281 L 167.796875 -31.613281 L 167.796875 -40.503906 L 173.214844 -33.457031 C 161.585938 -24.515625 147.824219 -20.042969 131.921875 -20.042969 C 116.492188 -20.042969 104.707031 -24.726562 96.570312 -34.097656 C 88.753906 -43.097656 84.847656 -56.03125 84.847656 -72.902344 L 84.847656 -233.386719 L 175.894531 -233.386719 L 175.894531 -224.5 L 167.007812 -224.5 L 167.007812 -255.511719 L 175.894531 -255.511719 L 175.894531 -246.625 L 84.847656 -246.625 L 84.847656 -315.6875 L 93.734375 -315.6875 L 95.1875 -306.917969 L 57.460938 -300.667969 L 56.007812 -309.4375 L 64.894531 -309.4375 L 64.894531 -246.625 L 11.570312 -246.625 L 11.570312 -255.511719 L 20.460938 -255.511719 L 20.460938 -224.5 L 11.570312 -224.5 L 11.570312 -233.386719 L 64.894531 -233.386719 L 64.894531 -69.199219 C 64.894531 -46.945312 70.136719 -30.511719 80.617188 -19.898438 C 91.066406 -9.316406 107.242188 -4.027344 129.144531 -4.027344 C 139.652344 -4.027344 149.367188 -5.433594 158.296875 -8.246094 C 166.710938 -10.894531 173.414062 -14.714844 178.40625 -19.707031 L 184.691406 -13.421875 L 176.570312 -9.8125 Z M 164.535156 -36.894531 "/></g></g></g></svg>